<svg xmlns="http://www.w3.org/2000/svg"  xmlns:xlink="http://www.w3.org/1999/xlink"  focusable="false" aria-hidden="true" width="40" height="40" fill-rule="evenodd" viewBox="0 0 40 40"><path fill="#fff" d="M0 0h40v40H0z"></path><path fill="#ebecf0" d="M13 6h26v28H13z"></path><path d="M9 6h4v28H9a2 2 0 01-2-2V8a2 2 0 012-2z" fill="#dfe1e6"></path><g fill="#a5adba"><rect x="9" y="9" width="2" height="1" rx="0.5"></rect><rect x="16" y="9" width="9" height="1" rx="0.5"></rect><rect x="22" y="21" width="9" height="1" rx="0.5"></rect><rect x="22" y="29" width="9" height="1" rx="0.5"></rect></g><g fill="#4c9aff"><rect x="28" y="25" width="9" height="1" rx="0.5"></rect><rect x="16" y="13" width="13" height="1" rx="0.5"></rect></g><g fill="#ff7452"><rect x="16" y="17" width="13" height="1" rx="0.5"></rect><rect x="19" y="25" width="7" height="1" rx="0.5"></rect></g><g fill="#a5adba"><rect x="9" y="13" width="2" height="1" rx="0.5"></rect><rect x="9" y="17" width="2" height="1" rx="0.5"></rect><rect x="9" y="21" width="2" height="1" rx="0.5"></rect><rect x="9" y="25" width="2" height="1" rx="0.5"></rect><rect x="9" y="29" width="2" height="1" rx="0.5"></rect></g></svg>