<svg xmlns="http://www.w3.org/2000/svg"  xmlns:xlink="http://www.w3.org/1999/xlink"  fill="none" viewBox="-4 -4 24 24" role="presentation" class="_1reo15vq _18m915vq _syaz1r31 _lcxvglyw _s7n4yfq0 _vc881r31 _1bsb1ejb _4t3i1ejb"><path fill="currentcolor" fill-rule="evenodd" d="M1 3a2 2 0 0 1 2-2h8a2 2 0 0 1 2 2v8a2 2 0 0 1-2 2H3a2 2 0 0 1-2-2zm2-.5a.5.5 0 0 0-.5.5v8a.5.5 0 0 0 .5.5h8a.5.5 0 0 0 .5-.5V3a.5.5 0 0 0-.5-.5zM4 4h6v1.5H4zm10.5 8.75V6H16v6.75A3.25 3.25 0 0 1 12.75 16H6v-1.5h6.75a1.75 1.75 0 0 0 1.75-1.75M4 7h4.5v1.5H4z" clip-rule="evenodd"></path></svg>