<svg xmlns="http://www.w3.org/2000/svg"  xmlns:xlink="http://www.w3.org/1999/xlink"  height="100%" viewBox="0 0 24 24">
    <path fill="var(--tile-color,#dddee1)" d="M0 6a6 6 0 0 1 6-6h12a6 6 0 0 1 6 6v12a6 6 0 0 1-6 6H6a6 6 0 0 1-6-6z"></path>
    <path fill="var(--icon-color, #101214)" d="M8.06 11.25a2.63 2.63 0 1 0 0-5.25 2.63 2.63 0 0 0 0 5.25m7.88 0a2.63 2.63 0 1 0 0-5.25 2.63 2.63 0 0 0 0 5.25m.17 1.31a2.89 2.89 0 0 1 2.89 2.9V18h-7.22l1.66-3.67a2.89 2.89 0 0 1 2.67-1.77M5 15.63V18h4.81l1.31-2.81a2.63 2.63 0 0 0-2.62-2.63h-.44A3.06 3.06 0 0 0 5 15.63"></path>
</svg>